<?xml version="1.0" standalone="no"?>
<!DOCTYPE svg PUBLIC "-//W3C//DTD SVG 20010904//EN"
 "http://www.w3.org/TR/2001/REC-SVG-20010904/DTD/svg10.dtd">
<svg version="1.0" xmlns="http://www.w3.org/2000/svg"
 width="213.000000pt" height="213.000000pt" viewBox="0 0 213.000000 213.000000"
 preserveAspectRatio="xMidYMid meet">
<metadata>
Created by potrace 1.14, written by Peter Selinger 2001-2017
</metadata>
<g transform="translate(0.000000,213.000000) scale(0.100000,-0.100000)"
fill="#000000" stroke="none">
<path d="M380 1638 c0 -2 -18 -57 -41 -123 -86 -251 -299 -880 -299 -882 0 -2
31 -3 68 -3 l69 0 52 160 52 160 178 0 177 0 54 -160 54 -160 69 0 69 0 -7 28
c-3 15 -28 90 -55 167 -26 77 -94 275 -150 440 -56 165 -107 316 -114 335
l-14 35 -81 3 c-44 2 -81 1 -81 0z m94 -173 c4 -19 36 -121 71 -225 l64 -190
-150 0 c-82 0 -149 1 -149 3 0 1 26 81 59 177 32 96 64 198 72 227 14 58 24
60 33 8z"/>
<path d="M1068 1633 c-3 -18 -12 -129 -24 -318 -3 -49 -7 -106 -9 -125 -2 -19
-6 -91 -10 -160 -4 -69 -9 -132 -10 -142 -2 -9 -7 -71 -10 -137 l-7 -121 64 0
c60 0 64 2 64 23 1 35 15 278 19 317 4 39 16 275 20 385 2 39 4 86 4 105 1 25
14 -7 46 -115 24 -82 77 -247 118 -365 41 -118 84 -245 96 -281 l21 -65 52 0
51 1 98 270 c81 220 136 378 203 585 2 8 5 -21 6 -65 2 -83 5 -161 15 -330 3
-55 8 -156 11 -225 4 -69 8 -132 10 -140 1 -8 3 -34 3 -57 l1 -43 66 0 65 0
-6 108 c-3 59 -8 127 -10 152 -2 25 -7 99 -11 165 -3 66 -8 138 -9 160 -2 22
-7 96 -11 165 -4 69 -8 136 -9 150 -2 14 -3 44 -4 68 l-1 43 -87 -3 -86 -3
-84 -225 c-87 -234 -175 -491 -187 -547 -10 -43 -22 -42 -30 1 -11 55 -71 240
-169 519 l-90 257 -84 0 c-45 0 -84 -3 -85 -7z"/>
</g>
</svg>
